/* XPM */
static char *_6672fffdd834230ee58bd4474c08c79VYfJnfF0hzaKrh9g[] = {
/* columns rows colors chars-per-pixel */
"50 50 139 2 ",
"   c None",
".  c #C91D00",
"X  c #CC2202",
"o  c #CD2C02",
"O  c #CB2A0F",
"+  c #CF3002",
"@  c #CF2E11",
"#  c #CB3117",
"$  c #CC361D",
"%  c #CD3D25",
"&  c #D54403",
"*  c #D94E05",
"=  c #D84805",
"-  c #DA5305",
";  c #DC5B06",
":  c #DE5A09",
">  c #FE4D17",
",  c #FE4E19",
"<  c #FF501A",
"1  c #FF5A1B",
"2  c #DE6105",
"3  c #E26B08",
"4  c #E67706",
"5  c #E87F08",
"6  c #FD621C",
"7  c #FF6B1E",
"8  c #FF721F",
"9  c #CE462F",
"0  c #CE4730",
"q  c #CF4F3A",
"w  c #CF513C",
"e  c #FE5622",
"r  c #FF5B29",
"t  c #FF7620",
"y  c #FF7920",
"u  c #FF6333",
"i  c #FF6C3F",
"p  c #D36C5C",
"a  c #FF754A",
"s  c #FF7D55",
"d  c #ED8C07",
"f  c #EC8705",
"g  c #EE9109",
"h  c #EF9306",
"j  c #F19807",
"k  c #F29B09",
"l  c #F5A406",
"z  c #F7A906",
"x  c #F3A008",
"c  c #F7AC08",
"v  c #F8AC03",
"b  c #FBB404",
"n  c #FFBF02",
"m  c #FDBB08",
"M  c #FF8C23",
"N  c #FF9624",
"B  c #FF9F25",
"V  c #FFA326",
"C  c #FFAA25",
"Z  c #FFB529",
"A  c #FFB929",
"S  c #FFC104",
"D  c #FFCB2B",
"F  c #FFD32D",
"G  c #FFDC2D",
"H  c #D58477",
"J  c #FF9777",
"K  c #009AE3",
"L  c #0C9DE3",
"P  c #109EE3",
"I  c #00A1E6",
"U  c #00BCEF",
"Y  c #00BFF0",
"T  c #23A4E3",
"R  c #2FA8E3",
"E  c #2EA7E3",
"W  c #35AAE3",
"Q  c #3CACE3",
"!  c #56B4E3",
"~  c #5AB6E2",
"^  c #72BDE3",
"/  c #00C0F0",
"(  c #0BC2F1",
")  c #12C3F1",
"_  c #26C9F2",
"`  c #2DCAF2",
"'  c #36CDF3",
"]  c #3FCFF4",
"[  c #44CFF4",
"{  c #45D1F4",
"}  c #7DC0E3",
"|  c #64D8F6",
" . c #69D9F6",
".. c #D68D82",
"X. c #D89B92",
"o. c #DBA49C",
"O. c #FFAC92",
"+. c #FFB49C",
"@. c #DAAAA3",
"#. c #DBB7B2",
"$. c #FFC0AD",
"%. c #FCC5B5",
"&. c #FFC8B7",
"*. c #FFCEBE",
"=. c #84C3E3",
"-. c #8BC5E2",
";. c #82DFF8",
":. c #ACD0E2",
">. c #B7D3E2",
",. c #B9D4E2",
"<. c #84E0F8",
"1. c #8FE3F8",
"2. c #97E5F9",
"3. c #9BE6F9",
"4. c #A1E7FA",
"5. c #A2E8FA",
"6. c #DECDCC",
"7. c #DFD9DA",
"8. c #FFDACE",
"9. c #E0DDDF",
"0. c #C3D7E2",
"q. c #C7D8E2",
"w. c #CCDAE3",
"e. c #D4DCE2",
"r. c #D9DEE2",
"t. c #E0DFE1",
"y. c #C5F0FC",
"u. c #D3F4FC",
"i. c #DEF7FD",
"p. c #E1E2E3",
"a. c #E5E7E9",
"s. c #FFECE6",
"d. c #FFEEE9",
"f. c #E1F6FC",
"g. c #E3F8FD",
"h. c #EDFBFE",
"j. c #FFF9F7",
"k. c #F6FDFE",
"l. c #FFFFFF",
/* pixels */
"                                        Y Y Y Y Y K K K I I I                                       ",
"                                  Y Y Y Y Y Y Y Y K K K K K K K K K                                 ",
"                            Y Y Y Y Y Y Y Y Y Y Y K K K K K K K K K K K                             ",
"                        Y Y Y Y Y Y Y Y Y Y Y Y U K K K K K K K K K K K K I                         ",
"                      Y / / / / Y Y Y Y Y Y Y Y U K K K K K K K K K K K K K K                       ",
"                  Y Y Y / U / U / Y Y Y Y ) ` ] [ ! W E P K K K K K K K K K K K I                   ",
"                Y Y Y Y / U / / Y ( _  .5.y.u.i.f.q.q.,.:.-.~ T L K K K K K K K K K                 ",
"              Y Y Y Y / / / U ( { 3.g.k.l.l.l.l.l.a.p.a.t.t.e.q.-.W L K K K K K K K I               ",
"            Y / Y Y Y Y U / ' 3.h.l.l.l.l.s.8.*.%.X.@.#.6.t.t.t.t.e.=.E K K K K K K K K             ",
"          Y Y Y Y Y Y Y ( | u.l.l.l.d.$.J s i u r # # % q p X.6.t.p.p.>.! L K K K K K K I           ",
"          Y Y Y Y Y Y ) ;.k.l.l.d.+.a r > > , , > . . . . . O 0 ..6.t.t.e.^ P L K K K K K           ",
"        Y Y Y Y Y Y ( 2.k.l.l.*.J < , , , > < < > . . . . . . . X q @.9.r.r.^ P K K K K K K         ",
"      Y Y Y Y Y Y ( ;.k.l.j.+.u > > > > < < < , , X . . . . . . . . $ ..9.t.r.^ L K K K K K K       ",
"      Y Y Y Y Y Y | h.l.j.O.r , > > > > < < < < 7 : . . . . . . . . . O p 9.t.e.! K K K K K K       ",
"    Y Y Y Y Y Y ' u.l.l.+.r , < < < , < < < < 1 C k o . . . . . . . . . # ..9.t.>.E K K K K K K     ",
"    Y Y Y Y Y ( 3.l.l.*.u > < < < < , < < < , 8 F m : . . . . . . . . . . % @.t.t.=.L K K K K K     ",
"    Y Y / / / { h.l.d.s , < < < < < < < , , e C G S h o . . . . . . . . . . w 6.p.w.W K K K K K K   ",
"  Y Y Y / U ( 3.l.l.+.e < < < < < < < < , , t D G S n - . . . . . . . . . . X ..r.p.=.L K K K K I   ",
"  Y / / U / _ g.l.d.a , < < < < < < < < < e C G G S S j o . . . . X . . . . . 0 6.p.q.T K K K K K   ",
"  Y / U / /  .k.l.$.r , < < < < < < < , < t F G G S n n - . . . . . . . X . . O X.p.r.~ K K K K K I ",
"/ Y Y Y / U 5.l.l.J > , < < < < < 1 7 y M A G G G S n S c 5 3 * o X X X . . . . p r.t.-.L K K K K I ",
"Y Y Y Y / ) y.l.s.s > < < 7 N C A D F F F G G G G S n n S S n b v z l g : . . . q 6.p.:.L K K K K I ",
"Y Y Y Y U ` u.l.8.i > < < 7 A G G G G G G G G G G n n n n S n n n n n c : . . . % #.p.,.T K K K K I ",
"/ Y Y Y U ] i.l.*.u , < < < 7 A G G G G G G G G G n n n n n n n n n c - . . . . # @.a.0.W K K K K K ",
"/ Y Y Y Y { g.l.&.r , < < < , 7 Z G G G G G G G G n n n n S n n S z * . . . . . O o.t.q.Q K K K K K ",
"/ Y Y Y Y { g.l.&.r , < < < < , 7 Z G G G G G G G S n n n n n S l * . . . . . . O o.a.q.! K K K K K ",
"/ Y Y / Y ] i.l.*.u , < < < < < < r Z G G G G G G S S S n n S l * . . . . . . . # @.t.q.E K K K K K ",
"Y Y Y Y Y ` u.l.8.i > < < , < < < < t F G G G G F S n n n n n - . . . . . . . . % #.t.>.T K K K K K ",
"Y Y Y Y Y ) y.l.d.s > , < < < , < < 7 D G G G G G S n S n n n & . . . . . . . . q 6.t.:.P K K K K I ",
"Y Y Y Y Y Y 4.l.l.J > < < < < < < < y G G G G G G S n n n n n - . . . . . . . . p t.t.-.K K K K K I ",
"  Y Y Y Y Y  .k.l.$.r , , < < < < , M G G G G G G n n n n n n 4 . . . . . . . O X.t.r.~ K K K K K I ",
"  Y Y Y Y Y _ g.l.d.a , < < < < , e V G G G G G D b n S n n n j X . . . . . . q 6.t.q.T K K K K K   ",
"  Y Y Y Y Y ( 3.l.l.+.e , < < < < 1 Z G G G D B 6 & f b S S S c o . . . . . X ..p.p.-.L K K K K I   ",
"    Y Y Y Y Y [ h.l.d.s , < < < , 1 D G D V 7 e , X . - f b S b o . X . . . w 6.p.q.W K K K K K K   ",
"    Y Y Y Y Y ( 2.l.l.*.u > , < < 7 D V t < , < , X . . X - g c & . . . . $ @.t.p.=.L K K K K K     ",
"    Y Y Y Y Y Y ' u.l.l.+.r , < , 6 7 1 , , , , > X . . . . o * & . . . @ ..7.p.>.E K K K K K K     ",
"      Y Y Y Y Y U | h.l.j.O.r < > > > < , < < < > . . . . . . . . . . O H 7.p.e.! K K K K K K       ",
"      Y Y Y Y / / ( <.k.l.j.+.u > > , < < < < , , X . . . . . . . . % ..7.r.r.^ L K K K K K K       ",
"        Y Y Y Y / U ) 1.k.l.l.8.J > , , < < , , , . . . . . . . X w @.t.p.r.^ P K K K K K K         ",
"          Y Y Y / / U ) ;.h.l.j.d.+.a r , , > , > . . . . . O 0 ..6.p.p.e.^ P K K K K K K           ",
"          Y Y Y / / Y Y ( | u.l.l.l.d.$.J s a r r @ # % q p X.6.t.t.t.>.! L K K K K K K I           ",
"            Y Y Y Y Y Y Y Y ' 2.h.l.l.l.l.s.8.*.%.o.@.#.6.p.p.t.t.w.=.E K K K K K K K K             ",
"              Y Y Y Y Y Y Y Y ( [ 4.g.l.l.l.l.l.l.a.a.p.p.t.e.q.=.Q L K K K K K K K K               ",
"                Y Y Y Y Y Y Y Y Y Y _  .4.y.u.i.g.q.q.,.:.-.~ T K K K K K K K K K K                 ",
"                  Y Y Y Y Y Y Y Y Y Y Y U Y ` ] [ ! E T L K K K K K K K K K K K I                   ",
"                      Y Y Y Y Y Y Y Y Y Y Y Y Y Y K K K K K K K K K K K K K K                       ",
"                        Y Y Y Y Y Y Y Y Y Y Y Y U K K K K K K K K K K K K I                         ",
"                            Y Y Y Y Y Y Y Y Y Y U K K K K K K K K K K K                             ",
"                                  Y Y Y Y Y Y Y Y K K K K K K K K K                                 ",
"                                        Y Y Y Y Y K K K I I I                                       "
};
