/* XPM */
static char *d1c1e6a2010a4753af7bb9ff40ef6218p0SDKEEdwiV9T8i6[] = {
/* columns rows colors chars-per-pixel */
"50 50 111 2 ",
"   c None",
".  c #984714",
"X  c #994916",
"o  c #9A4916",
"O  c #9B4A16",
"+  c #9A4A17",
"@  c #9C4A15",
"#  c #9D4C1A",
"$  c #A54F16",
"%  c #A54F17",
"&  c #A64F17",
"*  c #A34E18",
"=  c #A75018",
"-  c #A95118",
";  c #A95218",
":  c #AA5219",
">  c #AB5219",
",  c #AA521A",
"<  c #B85A1E",
"1  c #A95827",
"2  c #AE5C2C",
"3  c #BC5D22",
"4  c #B5602F",
"5  c #B36232",
"6  c #BB6635",
"7  c #C66020",
"8  c #C66021",
"9  c #C86324",
"0  c #C16228",
"q  c #C16328",
"w  c #C1652D",
"e  c #CC682C",
"r  c #D56722",
"t  c #D56723",
"y  c #D66926",
"u  c #D66927",
"i  c #D76A29",
"p  c #D76B29",
"a  c #D86D2C",
"s  c #C96B33",
"d  c #CA6B33",
"f  c #C06D3F",
"g  c #D27137",
"h  c #DA7132",
"j  c #DA7133",
"k  c #DB7437",
"l  c #DD793F",
"z  c #C37042",
"x  c #C77447",
"c  c #CE7646",
"v  c #D27743",
"b  c #D37744",
"n  c #D97943",
"m  c #DE7B42",
"M  c #D77B49",
"N  c #D27B4C",
"B  c #D97F4D",
"V  c #D97F4F",
"C  c #D07D51",
"Z  c #DA804E",
"A  c #D58155",
"S  c #DD8353",
"D  c #D98255",
"F  c #DA8457",
"G  c #D9855B",
"H  c #DA865B",
"J  c #DC885E",
"K  c #E2824E",
"L  c #E2834E",
"P  c #E2824F",
"I  c #E2834F",
"U  c #E7834D",
"Y  c #E9844F",
"T  c #E9854F",
"R  c #E38451",
"E  c #EA8550",
"W  c #E58958",
"Q  c #E28A5D",
"!  c #E48B5D",
"~  c #E68C5D",
"^  c #E78C5E",
"/  c #E78D5E",
"(  c #E78D5F",
")  c #E38F65",
"_  c #E68F64",
"`  c #E88F62",
"'  c #E79064",
"]  c #E59167",
"[  c #E79167",
"{  c #E99063",
"}  c #EA9064",
"|  c #EA9164",
" . c #E89166",
".. c #E99166",
"X. c #E99266",
"o. c #E99267",
"O. c #E79369",
"+. c #E7936A",
"@. c #E99369",
"#. c #EA946A",
"$. c #EA946B",
"%. c #EA956B",
"&. c #EA956C",
"*. c #EB966C",
"=. c #EB966D",
"-. c #EB966E",
";. c #EB976E",
":. c #EC976E",
">. c #EC976F",
",. c #ED986F",
"<. c #ED9870",
/* pixels */
"                  - - - - - - - - - - - - - - - - - - - - - - - - - - - - - & + .                   ",
"                  - - - - - - - - - - - - - - - - - - & - - - - - - - - - - - @ +                   ",
"                  - - - - - - - - - - > - , , , , , , , , , , , - - > - > - - X +                   ",
"                  - % @ 6 H F F F F F F F F S S F V F F V F V F F F F S n w % @ @                   ",
"                  - * . z <.=.=.$.&.&.&.,.&.&.&.&.<.&.&.>.-.-.-.&.&.,.} E d $ @ +                   ",
"                  - * . z <.=.=.&.&.&.&.,.&.&.&.&.&.&.&.>.>.>.$.&.&.&.} E d $ X X                   ",
"                  - * . z ,.=.=.&.&.&.$.&.$.$.$.&.&.$.$.$.$.+.$.$.&.&.` E d % @ X                   ",
"                  - * X z ,.=.=.^ m l l m l l l l m l l l l n g s S ,.o.E d % @ @                   ",
"                  - * . z ,.=.;.U u t t t t t t r r t t t t t 8 < b <.} E d % @ X                   ",
"                  - * . z ,.=.;.R u t t t t t t t t t t t t t 8 < b &.` E d % + @                   ",
"                  - * . z ,.=.;.P y t t t t t t t t t t t t t 8 < b <.} E d & @ +                   ",
"                  - * . z <.=.;.P y t t t t t t t t t t t t t 8 < b <.} E d & + X                   ",
"                  - * . z ,.=.;.P y t t t t t t t t t t t t t 8 < b &.} E s & @ X                   ",
"                  - * . z ,.=.;.P y t t t t t t t t t t t t t 8 < b <.` E s % @ @                   ",
"                  - * . z ,.=.;.I y t t t t t t t t t t t t t 8 < b <.} E s % X +                   ",
"                  - * . z ,.=.=.I y t t t t t t t t t t t t t 8 3 b &.} E s & @ X                   ",
"                  - * . z ,.=.;.I y t t t t t t t t t t t t t 8 < b &.} E d % @ X                   ",
"                  - * . z ,.=.;.I y t t t t t t t t t t t t t 8 < b <.} E d % @ X                   ",
"                  - * . z ,.=.;.I y t t t t t t t t t t t t t 8 < b <.} E d - X X                   ",
"                  - * X z ,.=.;.I y t t t t t t t t t t t t t 8 < b <.} E d % @ @                   ",
"                  - * . z ,.=.;.I y t t t t t t t t t t t t t 8 < b ,.} T d $ @ X                   ",
"                  - * . z ,.=.;.I y r r t t t t t t t t t t t 8 < b &.} E d $ X X                   ",
"                  - * . z ,.=.;.I y t r t t t t t t t t t r t 8 < b &.` E d % @ @                   ",
"                  - * . z ,.=.=.R a p p p p p p p p p p p p p 9 3 M <.o.E d % @ X                   ",
"                  - * . z ,.=.=.X.^ ^ ^ ^ ^ ^ ^ ^ ^ ^ ^ ^ ^ ^ ! Q ) $.` E d % X @                   ",
"                  - * . z ,.=.=.;.;.;.;.;.;.;.;.;.=.;.;.;.,.+.J G x 5 N Y d % @ X                   ",
"                  - * . z ,.=.=.=.=.=.=.=.=.=.=.=.=.=.=.=.=.H 1 * + + 2 U d % @ X                   ",
"                  - * . z ,.=.=.=.=.=.=.=.=.=.;.=.=.=.=.=.=.O.A C z 2 c Y d % X @                   ",
"                  - * . z ,.=.=.%.o.o.o.[ X.X.X.| o.o.o.o.o.o.o.o.o.) | E d % X +                   ",
"                  - * X z ,.=.;.W k j j j j j j j j j j j j j e 0 Z &.} E d % @ X                   ",
"                  - * . z ,.;.;.P y t t t t t t r r t t t t t 7 < b &.` E d % @ X                   ",
"                  - * . z ,.%.*.P y t t t t t t r r t t t t t 7 < b <.o.E d % + @                   ",
"                  - * . z ,.=.=.P y t t t t t t t t t t t t t 8 < b ,.| E d % X X                   ",
"                  - * . z ,.=.;.P y t t t t t t t t t t t t t 8 < b &.| E d % @ @                   ",
"                  - * . z ,.=.;.P y t t t t t t t t t t t t t 8 < b <.o.E d % @ X                   ",
"                  - * . z <.=.;.P y t t t t t t t t t t t t t 8 < b &.` E d % X X                   ",
"                  - * . z ,.=.;.P y t t t t t t t t t t t t t 8 < b <.` E d % @ @                   ",
"                  - * . z ,.=.;.P y t t t t t t t t t t t t t 8 < b <.} E d % @ X                   ",
"                  - * . z ,.=.;.P y t t t t t t t t t t t t t 8 < b <.} E d = @ X                   ",
"                  - * X z ,.=.;.P y t t t t t t t t t t t t t 8 < b <.` E d % @ @                   ",
"                  - * . z ,.=.=.P y t t t t t t t t t t t t t 8 < b <.} T d % @ X                   ",
"                  - * . z ,.=.;.P y t t t t t t t t t t t t t 8 < b <.} E d % X X                   ",
"                  - * . z ,.=.;.P y t t t t t t t t t t t t t 7 < b &.} E d % @ @                   ",
"                  - * . z <.=.;.I t t t t t t t t t t t t t t 7 < b &.o.E d % @ +                   ",
"                  - * . z ,.=.;.P y t t t t t t t t t t t t t 7 < b &.} E d % X X                   ",
"                  - * . z ,.=.;.W k h j j j j j j j j j j j j e 0 B ,.} E d % @ X                   ",
"                  - * . z ,.=.=.%.o.o.o.| o.o.o.o.o.o.o.o.o.o.o.` *.&.} E d % + @                   ",
"                  - * X z ,.=.=.,.&.%.%.,.%.,.&.*.&.*.*.,.&.&.&.&.,.&.} E d % @ +                   ",
"                  - * . z &.&.&.,.&.,.&.&.&.,.&.,.&.&.&.,.&.,.&.&.&.&.} E d - @ X                   ",
"                  - * X z <.,.&.,.&.&.&.,.&.,.&.&.&.,.&.,.&.&.&.<.&.&.} E d % + X                   "
};
