/* XPM */
static char *result[] = {
/* columns rows colors chars-per-pixel */
"50 50 134 2 ",
"   c #010101",
".  c #0A0505",
"X  c #070807",
"o  c #0A0807",
"O  c #060809",
"+  c #0C0B0B",
"@  c #130506",
"#  c #170709",
"$  c #1D070A",
"%  c #120D0B",
"&  c #1B080A",
"*  c #16100D",
"=  c #18120F",
"-  c #0D0F10",
";  c #0E1011",
":  c #141414",
">  c #1B1512",
",  c #1F1814",
"<  c #13181B",
"1  c #1C1C1C",
"2  c #21090C",
"3  c #280B0E",
"4  c #2D0D11",
"5  c #340E13",
"6  c #390F14",
"7  c #221A16",
"8  c #271D19",
"9  c #291E1A",
"0  c #3A1015",
"q  c #2C231D",
"w  c #1C2225",
"e  c #222323",
"r  c #20282C",
"t  c #2A2A2A",
"y  c #332621",
"u  c #332923",
"i  c #3C2D27",
"p  c #242D32",
"a  c #283137",
"s  c #2B353B",
"d  c #2E3A3F",
"f  c #323333",
"g  c #3C3E3D",
"h  c #401217",
"j  c #47141A",
"k  c #4C151B",
"l  c #55181F",
"z  c #5C1A21",
"x  c #641D25",
"c  c #6D1F28",
"v  c #45332C",
"b  c #48352E",
"n  c #4C3931",
"m  c #553F36",
"M  c #7B232D",
"N  c #3E403F",
"B  c #564037",
"V  c #55453A",
"C  c #5B433A",
"Z  c #5B4A3E",
"A  c #61483E",
"S  c #2F3A40",
"D  c #323D43",
"F  c #344046",
"G  c #3E4040",
"H  c #39474E",
"J  c #3A484F",
"K  c #3C4A52",
"L  c #454847",
"P  c #464848",
"I  c #494C4B",
"U  c #4D504F",
"Y  c #44535C",
"T  c #5D5E5E",
"R  c #654B41",
"E  c #665245",
"W  c #6A5347",
"Q  c #6B5649",
"!  c #74564A",
"~  c #76594C",
"^  c #79594D",
"/  c #765F50",
"(  c #5F605F",
")  c #776050",
"_  c #7B6453",
"`  c #4E606A",
"'  c #5E6261",
"]  c #576974",
"[  c #616463",
"{  c #676B6A",
"}  c #6B6D6C",
"|  c #6F7372",
" . c #757575",
".. c #747877",
"X. c #777B7A",
"o. c #7B7E7D",
"O. c #80252F",
"+. c #842630",
"@. c #8D2934",
"#. c #942B36",
"$. c #9A2C38",
"%. c #876D5B",
"&. c #896F5D",
"*. c #917562",
"=. c #967965",
"-. c #997B67",
";. c #9C7E6A",
":. c #A2836D",
">. c #AD8C75",
",. c #B08E77",
"<. c #B4927A",
"1. c #BB977E",
"2. c #667C89",
"3. c #7E8281",
"4. c #828282",
"5. c #878888",
"6. c #898989",
"7. c #919292",
"8. c #A2A2A2",
"9. c #ADAEAE",
"0. c #B3B4B4",
"q. c #BEBFBF",
"w. c #C59F85",
"e. c #C6A086",
"r. c #CDA68B",
"t. c #D3AA8F",
"y. c #D6AD90",
"u. c #D8AE92",
"i. c #DBB194",
"p. c #D4D5D5",
"a. c #DADBDB",
"s. c #DFE0E0",
"d. c #E3E4E4",
"f. c None",
/* pixels */
"f.f.f.f.f.f.f.f.f.f.f.f.f.f.f.f.f.f.f.f.f.f.f.f.f.f.f.f.f.f.f.f.f.f.f.f.f.f.f.f.f.f.f.f.f.f.f.f.f.f.",
"f.f.f.f.f.f.f.f.f.f.f.f.f.f.f.f.f.f.f.f.f.f.f.        f.f.f.f.f.f.f.f.f.f.f.f.f.f.f.f.f.f.f.f.f.f.f.",
"f.f.f.f.f.f.f.f.f.f.f.f.f.f.f.f.f.f.f.f.f.f.    G G     f.f.f.f.f.f.f.f.f.f.f.f.f.f.f.f.f.f.f.f.f.f.",
"f.f.f.f.f.f.f.f.f.f.f.f.f.f.f.f.f.f.f.f.  + +   [ [   - +   f.f.f.f.f.f.f.f.f.f.f.f.f.f.f.f.f.f.f.f.",
"f.f.f.f.f.f.f.f.f.f.f.f.f.f.f.f.f.f.f.  t 6. .  ' [    .6.t   f.f.f.f.f.f.f.f.f.f.f.f.f.f.f.f.f.f.f.",
"f.f.f.f.f.f.f.f.f.f.f.f.f.f.f.f.f.f.  f 0.d.7.  [ '   7.d.0.f   f.f.f.f.f.f.f.f.f.f.f.f.f.f.f.f.f.f.",
"f.f.f.f.f.f.f.f.f.f.f.f.f.f.f.f.f.f.+ 4.a.p.6.  [ '   5.a.p.4.+ f.f.f.f.f.f.f.f.f.f.f.f.f.f.f.f.f.f.",
"f.f.f.f.f.f.f.f.f.f.f.f.f.f.f.        + : : +   [ [   + : : +         f.f.f.f.f.f.f.f.f.f.f.f.f.f.f.",
"f.f.f.f.f.f.f.f.f.f.f.f.f.f.f.  w f f f a s f D | | g f f f f f f e   f.f.f.f.f.f.f.f.f.f.f.f.f.f.f.",
"f.f.f.f.f.f.f.f.f.f.f.f.f.f.f.  I 4.o.o.3.3.=.o.X.o.o.3.o.o.o.o.4.I   f.f.f.f.f.f.f.f.f.f.f.f.f.f.f.",
"f.f.f.f.f.f.f.f.f.f.f.f.f.f.f.  % : < < : : < : : : : < : : : < : +   f.f.f.f.f.f.f.f.f.f.f.f.f.f.f.",
"f.f.f.f.f.f.f.f.f.f.f.f.f.f.f.      O w w w w w w w w w w w w +       f.f.f.f.f.f.f.f.f.f.f.f.f.f.f.",
"f.f.f.f.f.f.f.f.f.f.f.f.f.f.f.f.    w 2.2.2.2.2.2.2.2.2.2.2.2.w     f.f.f.f.f.f.f.f.f.f.f.f.f.f.f.f.",
"f.f.f.f.f.f.f.f.f.f.f.f.f.f.f.  1 + - D K ` ] Y a a Y ] ` Y D O + 1   f.f.f.f.f.f.f.f.f.f.f.f.f.f.f.",
"f.f.f.f.f.f.f.f.f.f.f.f.f.f.f.  L 1 O 1 : - O : 1 1 + + : < 1 X 1 L   f.f.f.f.f.f.f.f.f.f.f.f.f.f.f.",
"f.f.f.f.f.f.f.f.f.f.f.f.f.f.  1 { w t 8.7. .( 4.0.0.o.T  .6.8.t e { 1   f.f.f.f.f.f.f.f.f.f.f.f.f.f.",
"f.f.f.f.f.f.f.f.f.f.f.f.f.f.  g X.f e 9.d.d.d.d.s.d.d.d.d.d.9.8 f o.G   f.f.f.f.f.f.f.f.f.f.f.f.f.f.",
"f.f.f.f.f.f.f.f.f.f.f.f.f.  * { 3.( + T p.d.a.d.d.a.s.d.d.p.T + ( 3.{ :   f.f.f.f.f.f.f.f.f.f.f.f.f.",
"f.f.f.f.f.f.f.f.f.f.f.f.f.  g  .} ( e + { q.a.d.d.d.d.a.q.{ + w ( }  .g   f.f.f.f.f.f.f.f.f.f.f.f.f.",
"f.f.f.f.f.f.f.f.f.f.f.f.  X f a w : X     f [  . ... .[ f     X - q a f X   f.f.f.f.f.f.f.f.f.f.f.f.",
"f.f.f.f.f.f.f.f.f.f.f.f.            f.f.    * .     . *     f.f.            f.f.f.f.f.f.f.f.f.f.f.f.",
"f.f.f.f.f.f.f.f.f.f.f.f.    f.f.f.f.f.f.  > :.>.<.<.>.:.>   f.f.f.f.f.f.    f.f.f.f.f.f.f.f.f.f.f.f.",
"f.f.f.f.f.f.f.f.f.f.f.f.f.f.f.              u V ) ) V u               f.f.f.f.f.f.f.f.f.f.f.f.f.f.f.",
"f.f.f.f.f.f.f.f.f.f.f.      X 7 + $ l l l k 5 $ . . $ 5 k l l l $ + 7 X       f.f.f.f.f.f.f.f.f.f.f.",
"f.f.                  o y E :.%.> k $.$.$.$.@.+.M M O.@.$.$.$.$.k = &.:.W u o             X     f.f.",
"f.f.f.  t g t e 1 o X E w.t.i.*.o x $.$.$.$.$.$.$.$.$.$.$.$.$.$.x o *.i.t.e.E . O 1 e t G e   f.f.f.",
"f.f.f.  t o.o.U : . o ) y.y.i.=.+ l $.$.$.$.#.$.$.$.$.$.$.$.$.$.l % =.i.t.y._ o o ; I X.X.t   f.f.f.",
"f.f.f.  : I f O = m = y 1.y.u.>.q 6 #.$.$.$.$.$.$.#.$.$.$.$.$.#.0 q >.i.y.1.u * m > + f I :   f.f.f.",
"f.f.f.    O +   i ! b + ) e.>.~ 7 @ O.@.@.#.#.$.$.$.$.#.#.@.@.O.@ > ~ ,.e.~ o b ! v   o o     f.f.f.",
"f.f.    9 Z &.q % C C + , u - .     @ 2 4 0 j l x z l k 6 3 2 @     X + u 7 + C m % q %.Z q .   f.f.",
"f.f.  B ,.t.y.-.> % > X       f.f.  % 9 7 > % o     . % = 8 9 %   f.f.      X = * > -.y.t.,.n   f.f.",
"f.  * >.i.t.y.t.E     f.f.f.f.f.f.  7 R R A C C C C C A A R A 7   f.f.f.f.f.f.    E y.y.t.u.>.:   f.",
"f.  Z r.y.y.y.i._   f.f.f.f.f.f.f.    : 7 9 i b m m n i q , *     f.f.f.f.f.f.f.  _ i.y.y.y.r.Z   f.",
"f.  ~ t.y.y.y.t.Q   f.f.f.f.f.f.f.f.  & 4 2 # .     . # $ 4 &   f.f.f.f.f.f.f.f.  Q t.y.y.y.t.~   f.",
"f.  u <.y.y.y.,.q   f.f.f.f.f.f.f.f.  k @.O.M c x x c M M @.k   f.f.f.f.f.f.f.f.  y ,.y.y.y.<.q   f.",
"f.f.  u *.<.*.u   f.f.f.f.f.f.f.f.    . 3 l +.#.$.$.$.+.z 3 #     f.f.f.f.f.f.f.f.  u *.<.*.u   f.f.",
"f.f.f.  X o X   f.f.f.f.f.f.f.f.  O : : - o . 0 c c 0 # O ; < ; O   f.f.f.f.f.f.f.f.  X + X   f.f.f.",
"f.f.f.f.f.f.f.f.f.f.f.f.f.f.f.f.O w H H D a <         : p F H H w   f.f.f.f.f.f.f.f.f.f.f.f.f.f.f.f.",
"f.f.f.f.f.f.f.f.f.f.f.f.f.f.f.  - D J H K H w         w H J J J F -   f.f.f.f.f.f.f.f.f.f.f.f.f.f.f.",
"f.f.f.f.f.f.f.f.f.f.f.f.f.f.f.  ; s S d d p X   f.f.  X p S S S s :   f.f.f.f.f.f.f.f.f.f.f.f.f.f.f.",
"f.f.f.f.f.f.f.f.f.f.f.f.f.f.                  f.f.f.f.                  f.f.f.f.f.f.f.f.f.f.f.f.f.f.",
"f.f.f.f.f.f.f.f.f.f.f.f.f.f.  7 v v v v 8   f.f.f.f.f.f.  8 v v v v 7   f.f.f.f.f.f.f.f.f.f.f.f.f.f.",
"f.f.f.f.f.f.f.f.f.f.f.f.f.f.o v ^ ^ ^ ^ y   f.f.f.f.f.f.  y ^ ^ ! ^ b o f.f.f.f.f.f.f.f.f.f.f.f.f.f.",
"f.f.f.f.f.f.f.f.f.f.f.f.f.f.+ m ! ! ! A >   f.f.f.f.f.f.  > R ! ! ! m + f.f.f.f.f.f.f.f.f.f.f.f.f.f.",
"f.f.f.f.f.f.f.f.f.f.f.f.f.  % A ! ! ^ n o f.f.f.f.f.f.f.f.o n ! ! ! R %   f.f.f.f.f.f.f.f.f.f.f.f.f.",
"f.f.f.f.f.f.f.f.f.f.      X 8 ! ! ! ^ v   f.f.f.f.f.f.f.f.  v ^ ! ! ! 9   .     f.f.f.f.f.f.f.f.f.f.",
"f.f.f.f.f.f.f.f.f.  . m R R W ^ ^ ! ^ m + f.f.f.f.f.f.f.f.o m ^ ^ ^ ! W R R m o   f.f.f.f.f.f.f.f.f.",
"f.f.f.f.f.f.f.f.f.  . b n m b b n b n i +   f.f.f.f.f.f.  + i n b n b n n n v o   f.f.f.f.f.f.f.f.f.",
"f.f.f.f.f.f.f.f.f.                          f.f.f.f.f.f.                          f.f.f.f.f.f.f.f.f.",
"f.f.f.f.f.f.f.f.f.f.f.f.f.f.f.f.f.f.f.f.f.f.f.f.f.f.f.f.f.f.f.f.f.f.f.f.f.f.f.f.f.f.f.f.f.f.f.f.f.f."
};
