/* XPM */
static char *result[] = {
/* columns rows colors chars-per-pixel */
"50 50 96 2 ",
"   c #C2413B",
".  c #C3423B",
"X  c #C3433C",
"o  c #C6463D",
"O  c #C6463E",
"+  c #C7483F",
"@  c #C8483F",
"#  c #CA4A3F",
"$  c #CD4D41",
"%  c #CE4E41",
"&  c #CE4F41",
"*  c #CF4F41",
"=  c #CE4F42",
"-  c #CF4F42",
";  c #CF5042",
":  c #D05042",
">  c #D05043",
",  c #D05143",
"<  c #D15143",
"1  c #D15243",
"2  c #D15244",
"3  c #D25344",
"4  c #D25445",
"5  c #D45546",
"6  c #D45646",
"7  c #D55646",
"8  c #D55746",
"9  c #D55747",
"0  c #D65847",
"q  c #D55848",
"w  c #D65848",
"e  c #D75948",
"r  c #D75A49",
"t  c #D75A4A",
"y  c #D85A49",
"u  c #D85B49",
"i  c #D95B4A",
"p  c #D95C4A",
"a  c #D95D4A",
"s  c #D95C4B",
"d  c #D95D4B",
"f  c #DA5D4B",
"g  c #DA5E4B",
"h  c #D95E4C",
"j  c #DA5E4C",
"k  c #DB5E4C",
"l  c #DA5F4C",
"z  c #DB5F4C",
"x  c #DC5F4C",
"c  c #DB604C",
"v  c #DB604D",
"b  c #DC604C",
"n  c #DC604D",
"m  c #DD604D",
"M  c #DC614D",
"N  c #DD614D",
"B  c #DD614E",
"V  c #DE614E",
"C  c #DD624E",
"Z  c #DD634E",
"A  c #DE624E",
"S  c #DE634E",
"D  c #DE624F",
"F  c #DE634F",
"G  c #DF634F",
"H  c #DF644F",
"J  c #DF6350",
"K  c #DF6450",
"L  c #E06450",
"P  c #E06550",
"I  c #E16550",
"U  c #E06551",
"Y  c #E16551",
"T  c #E16651",
"R  c #E26651",
"E  c #E26751",
"W  c #E26752",
"Q  c #E26852",
"!  c #E36852",
"~  c #E36853",
"^  c #E36953",
"/  c #E46953",
"(  c #E46A53",
")  c #E46A54",
"_  c #E56A54",
"`  c #E66C55",
"'  c #E66D55",
"]  c #E96F57",
"[  c #E97058",
"{  c #EA7058",
"}  c #EA7158",
"|  c #EA7159",
" . c #EB7259",
".. c #EB7359",
"X. c #EC7359",
"o. c #EC735A",
/* pixels */
"F C C C C (  . . .[ i % & g S C C C Q |  . . . . . . . . . . . . . . . .G % & y C C C C P ]  . . .] ",
"C C C C F `  . . . .B & , g C C C C )  . . . . . . . . . . . . . . . .X./ : - z C C C C Q }  . . . .",
"C C C C F `  . . . .V & , g C C C C )  . . . . . . . . . . . . . . . .X./ : - z C C C C Q }  . . . .",
"C C C C F `  . . . .V & , g C C C C )  . . . . . . . . . . . . . . . .X./ : - z C C C C Q }  . . . .",
"C C C C F `  . . . .V & , g C C C C )  . . . . . . . . . . . . . . . .X./ : - z C C C C Q }  . . . .",
"C C C C F `  . . . .V & , g C C C C )  . . . . . . . . . . . . . . . .X./ : - z C C C C Q }  . . . .",
"C C C C F `  . . . .V & , g C C C C )  . . . . . . . . . . . . . . . .X./ : - z C C C C Q }  . . . .",
"C C C C F `  . . . .V & , g C C C C )  . . . . . . . . . . . . . . . .X./ : - z C C C C Q }  . . . .",
"C C C C F `  . . . .V & , g C C C C )  . . . . . . . . . . . . . . . .X./ : - z C C C C Q }  . . . .",
"C C C C F `  . . . .m % > g C C C C (  . . . . . . . . . . . . . . . ...~ ; - k C C C C W }  . . .} ",
"q j j j j C Y Y Y J 5 % % e n n n n C U Y Y Y Y Y Y Y Y Y Y Y Y Y Y Y P y % % 6 v n n n C P Y Y Y k ",
"        . # - - - * % % % % - - - - - - - - - - - - - - - - - - - - - - % % % % - - - - - - - - - % ",
"X + + + @ = 2 1 1 1 1 1 1 1 1 1 1 1 1 1 1 1 , & % % - 2 4 3 3 3 2 1 1 1 1 1 1 1 1 1 1 1 1 1 1 1 1 - ",
"t d d d d P _ ) ) ) ) ) ) ) ) ) ) ) ) ) ) ) ( u % % 9 z c c c S ( ) ) ) ) ) ) ) ) ) ) ) ) ) ) ) ) P ",
"S C C C F ' o.X...........................X.o.G - > d Z C C C !  .X............................... .",
"C C C C F `  . . . . . . . . . . . . . . . .X.G - > f C C C C ! |  . . . . . . . . . . . . . . . . .",
"C C C C F `  . . . . . . . . . . . . . . . .X.G - > f C C C C ! }  . . . . . . . . . . . . . . . . .",
"C C C C F `  . . . . . . . . . . . . . . . .X.G - > f C C C C ! }  . . . . . . . . . . . . . . . . .",
"C C C C F `  . . . . . . . . . . . . . . . .X.G - > f C C C C ! }  . . . . . . . . . . . . . . . . .",
"C C C C F `  . . . . . . . . . . . . . . . .X.G - > f C C C C ! }  . . . . . . . . . . . . . . . . .",
"C C C C F `  . . . . . . . . . . . . . . . .X.G - > f C C C C ! }  . . . . . . . . . . . . . . . . .",
"C C C C F `  . . . . . . . . . . . . . . . .X.G - , g C C C C ! |  . . . . . . . . . . . . . . . . .",
"F C C C F ` o...............................o.D - : a C C C C Q  ............................... . .",
"q h j h j K E E E E E E E E E E E E E E E E T w % % 6 n M M M F R W W W W W W W W W W W W W W W E B ",
"X o o o O $ < , , , < < < < , , , , , , , , : % % % - < 2 2 2 2 , , , , < < < < , , , , , , , , , - ",
"X o o o O $ < , , : % % % - 1 1 1 1 1 , , , , < < < < , , , , , , , , , % % % % < 1 1 1 1 < , , , - ",
"q h j h j K E E E I 8 % & e M M M M H E E E E E E E E E E E E E E E E R p % % 7 b M M M S R E E E B ",
"F C C C F ` o..... .N % , g C C C C ) ................................o./ ; - k C C C C W } X... . .",
"C C C C F `  . . . .V & , g C C C C )  . . . . . . . . . . . . . . . .X./ : - z C C C C Q }  . . . .",
"C C C C F `  . . . .V & , g C C C C )  . . . . . . . . . . . . . . . .X./ : - z C C C C Q }  . . . .",
"C C C C F `  . . . .V & , g C C C C )  . . . . . . . . . . . . . . . .X./ : - z C C C C Q }  . . . .",
"C C C C F `  . . . .V & , g C C C C )  . . . . . . . . . . . . . . . .X./ : - z C C C C Q }  . . . .",
"C C C C F `  . . . .V & , g C C C C )  . . . . . . . . . . . . . . . .X./ : - z C C C C Q }  . . . .",
"C C C C F `  . . . .V & , g C C C C )  . . . . . . . . . . . . . . . .X./ : - z C C C C Q }  . . . .",
"C C C C F `  . . . .V & , g C C C C )  . . . . . . . . . . . . . . . .X./ : - z C C C C Q }  . . . .",
"S C C C F ' o.X... .V % , l Z C C Z ) X.............................X.o./ : - z C C C C Q | X..... .",
"t d d d d P _ ) ) / e % % r v c c c H _ ) ) ) ) ) ) ) ) ) ) ) ) ) ) ) ) x % % 0 z c c z S ^ _ ) ) P ",
"X + + + @ = 2 1 1 , % % % - 3 3 3 3 3 2 1 1 1 1 1 1 1 1 1 1 1 1 1 1 1 < & % % & 1 3 3 3 3 2 1 1 1 - ",
"        . # - - - - - - - - - - - - - - - - * % % % % - - - - - - - - - - - - - - - - - - - - - - % ",
"q j j j j C Y Y Y Y Y Y Y Y Y Y Y Y Y Y Y T L 9 % % 6 n n n n C P Y Y Y Y Y Y Y Y Y Y Y Y Y Y Y Y k ",
"C C C C F `  . . . . . . . . . . . . . . . ...A - : s C C C C Q }  . . . . . . . . . . . . . . . .} ",
"C C C C F `  . . . . . . . . . . . . . . . .X.G - > f C C C C ! }  . . . . . . . . . . . . . . . . .",
"C C C C F `  . . . . . . . . . . . . . . . .X.G - > f C C C C ! }  . . . . . . . . . . . . . . . . .",
"C C C C F `  . . . . . . . . . . . . . . . .X.G - > f C C C C ! }  . . . . . . . . . . . . . . . . .",
"C C C C F `  . . . . . . . . . . . . . . . .X.G - > f C C C C ! }  . . . . . . . . . . . . . . . . .",
"C C C C F `  . . . . . . . . . . . . . . . .X.G - > f C C C C ! }  . . . . . . . . . . . . . . . . .",
"C C C C F `  . . . . . . . . . . . . . . . .X.G - > f C C C C ! }  . . . . . . . . . . . . . . . . .",
"C C C C F `  . . . . . . . . . . . . . . . .X.G - > f C C C C ! }  . . . . . . . . . . . . . . . . .",
"C C C C F `  . . . . . . . . . . . . . . . .X.G - > f C C C C ! }  . . . . . . . . . . . . . . . . .",
"F C C C C (  . . . . . . . . . . . . . . . .} f % & r F C C C T {  . . . . . . . . . . . . . . . .] "
};
